<svg xmlns="http://www.w3.org/2000/svg" width="64" height="64" viewBox="0 0 64 64">
    <path d="M0 0h64v64H0Z" style="fill:#a07e42;stroke-width:.999999"/>
    <path d="M13.77 42.54h14.97v6.45H4.02v-6.45l12.42-10.96q1.66-1.5 2.46-2.94t.8-2.99q0-2.39-1.62-3.85-1.6-1.46-4.26-1.46-2.06 0-4.5.9-2.43.86-5.21 2.6v-7.48q2.96-.98 5.85-1.48 2.9-.53 5.68-.53 6.1 0 9.48 2.7 3.4 2.68 3.4 7.49 0 2.78-1.44 5.2-1.44 2.39-6.04 6.42z" aria-label="2" style="font-weight:700;stroke-width:6.58522"/>
    <path d="M60.07 32.01q0 8.46-3.64 13.06-3.64 4.58-10.35 4.58-6.72 0-10.36-4.58-3.65-4.6-3.65-13.06t3.65-13.06 10.36-4.6q6.7 0 10.35 4.6t3.64 13.06" aria-label="0" style="font-weight:700;font-size:12.3472px;stroke-width:6.58522"/>
    <path d="m49.38 43.54-.56-.97.33-.19-12.43-21.53.53-4.14 3.84 1.61 12.44 21.54.32-.2.56.98-1.58.91 3 5.2-.93.53-.93.54-3-5.2z" style="fill:#fff;stroke-width:1.5326"/>
    <path d="m43.16 43.54.56-.97-.33-.19 12.44-21.53-.53-4.14-3.85 1.61-12.43 21.54-.33-.2-.55.98 1.58.91-3 5.2.93.53.93.54 3-5.2z" style="fill:#fff;stroke-width:1.5326"/>
</svg>
