<svg xmlns="http://www.w3.org/2000/svg" width="64" height="64" viewBox="0 0 64 64">
    <path d="M0 0h64v64H0Z" style="fill:#a07e42;stroke-width:.999999"/>
    <path d="M17.5 22.19 7.9 36.43h9.6Zm-1.45-7.22h9.75v21.46h4.85v6.36H25.8v6.2h-8.3v-6.2H2.43v-7.52z" aria-label="4" style="font-weight:700;stroke-width:6.58522"/>
    <path d="M60.07 32.01q0 8.46-3.64 13.06-3.64 4.58-10.35 4.58-6.72 0-10.36-4.58-3.65-4.6-3.65-13.06t3.65-13.06 10.36-4.6q6.7 0 10.35 4.6t3.64 13.06" aria-label="0" style="font-weight:700;font-size:12.3472px;stroke-width:6.58522"/>
    <path d="m49.38 43.54-.56-.97.33-.19-12.43-21.53.53-4.14 3.84 1.61 12.44 21.54.32-.2.56.98-1.58.91 3 5.2-.93.53-.93.54-3-5.2z" style="fill:#fff;stroke-width:1.5326"/>
    <path d="m43.16 43.54.56-.97-.33-.19 12.44-21.53-.53-4.14-3.85 1.61-12.43 21.54-.33-.2-.55.98 1.58.91-3 5.2.93.53.93.54 3-5.2z" style="fill:#fff;stroke-width:1.5326"/>
</svg>
