<svg xmlns="http://www.w3.org/2000/svg" width="64" height="64" viewBox="0 0 64 64">
    <path d="M0 0h64v64H0Z" style="fill:#a07e42;stroke-width:.999999"/>
    <path d="M5.27 14.97h21.8v6.45h-14.8v5.26q1-.27 2-.41 1.03-.16 2.12-.16 6.22 0 9.68 3.12 3.47 3.1 3.47 8.66 0 5.51-3.78 8.64Q22 49.65 15.3 49.65q-2.9 0-5.75-.57-2.82-.55-5.62-1.69v-6.9q2.78 1.6 5.26 2.4 2.5.79 4.72.79 3.19 0 5-1.55 1.86-1.57 1.86-4.24 0-2.69-1.85-4.24-1.82-1.55-5.01-1.55-1.9 0-4.04.5-2.14.48-4.6 1.5z" aria-label="5" style="font-weight:700;stroke-width:6.58522"/>
    <path d="M60.07 32.01q0 8.47-3.64 13.06t-10.35 4.58q-6.72 0-10.36-4.58-3.65-4.6-3.65-13.06 0-8.48 3.65-13.05 3.64-4.6 10.36-4.6 6.7 0 10.35 4.6 3.64 4.57 3.64 13.05" aria-label="0" style="font-weight:700;font-size:12.3472px;stroke-width:6.58522"/>
    <path d="m49.38 43.54-.56-.97.33-.19-12.43-21.53.53-4.13 3.84 1.6 12.44 21.54.32-.19.56.97-1.58.91 3 5.2-.93.53-.93.54-3-5.2z" style="fill:#fff;stroke-width:1.5326"/>
    <path d="m43.16 43.54.56-.97-.33-.19 12.44-21.53-.53-4.13-3.85 1.6-12.43 21.54-.33-.19-.55.97 1.58.91-3 5.2.93.53.93.54 3-5.2z" style="fill:#fff;stroke-width:1.5326"/>
</svg>
