<svg xmlns="http://www.w3.org/2000/svg" width="64" height="64" viewBox="0 0 64 64">
    <path d="M0 0h64v64H0Z" style="fill:#828942;stroke-width:.999999"/>
    <path d="M13.77 42.54h14.97v6.45H4.02v-6.45l12.42-10.96q1.66-1.5 2.46-2.94t.8-2.99q0-2.39-1.62-3.85-1.6-1.46-4.26-1.46-2.06 0-4.5.9-2.43.86-5.21 2.6v-7.48q2.96-.98 5.85-1.48 2.9-.53 5.68-.53 6.1 0 9.48 2.7 3.4 2.68 3.4 7.49 0 2.78-1.44 5.2-1.44 2.39-6.04 6.42z" aria-label="2" style="font-weight:700;stroke-width:6.58522"/>
    <path d="M60.07 32.01q0 8.46-3.64 13.06-3.65 4.58-10.35 4.58-6.72 0-10.36-4.58-3.66-4.6-3.65-13.06 0-8.47 3.65-13.06t10.36-4.6q6.7 0 10.35 4.6t3.64 13.06" aria-label="0" style="font-weight:700;font-size:12.3472px;fill:#000;stroke-width:6.58522"/>
    <path d="m61.1 36.18-11.9-2.55 9.28 7.89-10.02-6.92L54 45.44l-6.6-10.22.97 12.13-2.2-11.97-3.73 11.58 2.55-11.9-7.89 9.27 6.92-10.02-10.84 5.55 10.22-6.61-12.13.98 11.97-2.2-11.58-3.74 11.9 2.55-9.27-7.88 10.02 6.91-5.55-10.84 6.61 10.23-.98-12.14 2.2 11.98 3.74-11.59-2.56 11.9 7.9-9.27-6.92 10.02 10.83-5.55-10.22 6.61 12.14-.97-11.98 2.2z" style="fill:#fff;stroke-width:1.62266"/>
</svg>
