<svg xmlns="http://www.w3.org/2000/svg" width="64" height="64" viewBox="0 0 64 64">
    <path d="M0 0h64v64H0Z" style="fill:#e64976;stroke-width:.999999"/>
    <path d="M38.49 42.73h-6.1v-.83q0-1.38.56-2.44.56-1.08 2.35-2.74l1.08-.98q.96-.87 1.4-1.65.45-.77.45-1.55 0-1.18-.8-1.84-.82-.67-2.27-.67-1.36 0-2.95.57-1.58.56-3.3 1.67v-5.3q2.04-.7 3.72-1.04 1.7-.34 3.26-.34 4.12 0 6.27 1.69 2.16 1.67 2.16 4.89 0 1.65-.65 2.97-.66 1.3-2.25 2.8l-1.08.96q-1.14 1.04-1.5 1.69-.35.62-.35 1.38zm-6.1 2.5h6.1v6h-6.1z" aria-label="?" style="font-weight:700;font-size:34.5456px;fill:#fff;stroke-width:.740266" transform="rotate(-30)"/>
    <path d="M20.2 42.93h7.76v-22L20 22.59V16.6l7.91-1.64h8.34v27.96H44v6.06H20.2Z" aria-label="1" style="font-weight:700;stroke-width:6.58522"/>
    <path d="M46.44 35h-3.85v-.51q0-.88.35-1.55.35-.68 1.48-1.73l.69-.62q.6-.55.88-1.04.29-.5.29-.98 0-.75-.51-1.16-.52-.43-1.43-.43-.87 0-1.87.36-1 .35-2.09 1.06v-3.35q1.3-.45 2.36-.66t2.06-.21q2.6 0 3.96 1.06 1.37 1.06 1.37 3.1 0 1.04-.42 1.87-.41.82-1.42 1.77l-.68.6q-.72.67-.95 1.07t-.22.88zm-3.85 1.59h3.85v3.8h-3.85z" aria-label="?" style="font-weight:700;font-size:21.8369px;fill:#fff;stroke-width:.467932" transform="rotate(45)"/>
</svg>
