<svg xmlns="http://www.w3.org/2000/svg" width="64" height="64" viewBox="0 0 64 64">
    <path d="M0 0h64v64H0Z" style="fill:#439471;stroke-width:.999999"/>
    <path d="M5.8 42.93h7.74v-22L5.6 22.59V16.6l7.9-1.64h8.35v27.96h7.74v6.06H5.8Z" aria-label="1" style="font-weight:700;stroke-width:6.58522"/>
    <path d="M35.6 30.56c-1.72-.08-3 .34-3.53 1.45q0 8.46 3.65 13.06 3.64 4.58 10.36 4.58.84 0 1.63-.07 5.54-.5 8.72-4.51c2.18-4.4-13.4-14.17-20.83-14.51" style="font-weight:700;font-size:12.3472px;stroke-width:6.58522"/>
    <path d="M52.2 9.63a4.23 4.23 0 0 1-4.24 4.23 4.23 4.23 0 0 1-4.24-4.23 4.23 4.23 0 0 1 4.24-4.24 4.23 4.23 0 0 1 4.23 4.24M40.94 29.25a4.23 4.23 0 0 1-4.23 4.23 4.23 4.23 0 0 1-4.24-4.23 4.23 4.23 0 0 1 4.24-4.23 4.23 4.23 0 0 1 4.23 4.23M56.85 24.12a4.23 4.23 0 0 1-4.23 4.24 4.23 4.23 0 0 1-4.24-4.24 4.23 4.23 0 0 1 4.24-4.23 4.23 4.23 0 0 1 4.23 4.23" style="stroke-width:1.26051"/>
    <path d="M46.84 40.8a4.23 4.23 0 0 1-4.23 4.23 4.23 4.23 0 0 1-4.24-4.24 4.23 4.23 0 0 1 4.24-4.23 4.23 4.23 0 0 1 4.23 4.23" style="fill:#fff;stroke-width:1.26051"/>
</svg>
