<svg xmlns="http://www.w3.org/2000/svg" width="64" height="64" viewBox="0 0 64 64">
    <path d="M0 0h64v64H0Z" style="fill:#e84d4d;stroke-width:.999999"/>
    <path d="M22.06 30.64q3.44.9 5.22 3.1 1.8 2.2 1.8 5.59 0 5.05-3.87 7.7-3.88 2.62-11.3 2.62-2.62 0-5.27-.43-2.62-.42-5.2-1.26V41.2q2.47 1.23 4.88 1.87 2.44.62 4.79.62 3.49 0 5.33-1.21 1.87-1.2 1.87-3.46 0-2.33-1.91-3.51-1.9-1.21-5.61-1.21h-3.5v-5.65h3.68q3.3 0 4.92-1.03 1.62-1.04 1.62-3.16 0-1.96-1.57-3.03-1.57-1.08-4.44-1.08-2.12 0-4.29.48t-4.3 1.42V15.8q2.6-.73 5.15-1.1 2.55-.36 5-.36 6.64 0 9.92 2.19 3.3 2.16 3.3 6.54 0 2.98-1.57 4.9-1.57 1.89-4.65 2.66" aria-label="3" style="font-weight:700;stroke-width:6.58522"/>
    <path d="M60.07 32.01q0 8.46-3.64 13.06-3.64 4.58-10.35 4.58-6.72 0-10.36-4.58-3.65-4.6-3.65-13.06t3.65-13.05 10.36-4.6q6.7 0 10.35 4.6 3.64 4.57 3.64 13.05" aria-label="0" style="font-weight:700;font-size:12.3472px;stroke-width:6.58522"/>
    <path d="M-63.72-34.9h35.3v5.8h-35.3z" style="fill:#fff;stroke-width:1.5326" transform="scale(-1)"/>
</svg>
