<svg xmlns="http://www.w3.org/2000/svg" width="64" height="64" viewBox="0 0 64 64">
    <path d="M0 0h64v64H0Z" style="fill:#4b8baf;stroke-width:.999999"/>
    <path d="M13.77 42.54h14.97v6.45H4.02v-6.45l12.42-10.96q1.66-1.5 2.46-2.94t.8-2.99q0-2.39-1.62-3.85-1.6-1.46-4.26-1.46-2.06 0-4.5.9-2.43.86-5.21 2.6v-7.48q2.96-.98 5.85-1.48 2.9-.53 5.68-.53 6.1 0 9.48 2.7 3.4 2.68 3.4 7.49 0 2.78-1.44 5.2-1.44 2.39-6.04 6.42z" aria-label="2" style="font-weight:700;stroke-width:6.58522"/>
    <path d="M60.07 32.01q0 8.46-3.64 13.06-3.65 4.58-10.35 4.58-6.72 0-10.36-4.58-3.65-4.6-3.65-13.06 0-8.48 3.65-13.05 3.64-4.6 10.36-4.6 6.7 0 10.35 4.6 3.64 4.57 3.64 13.05" aria-label="0" style="font-weight:700;font-size:12.3472px;stroke-width:6.58522"/>
    <path d="M-49.65 43.17h35.3v5.8h-35.3z" style="fill:#fff;stroke-width:1.5326" transform="rotate(-90)"/>
    <path d="M-63.72-34.9h35.3v5.8h-35.3Z" style="fill:#fff;stroke-width:1.5326" transform="scale(-1)"/>
</svg>
