<svg xmlns="http://www.w3.org/2000/svg" width="64" height="64" viewBox="0 0 16.93 16.93">
    <path d="M0 78.33h16.93v16.93H0z" style="fill:#e84d4d;stroke-width:.264583" transform="translate(0 -78.33)"/>
    <path d="M1.4 82.29h5.77v1.7H3.25v1.4q.26-.07.53-.11t.56-.04q1.65 0 2.56.82t.92 2.3q0 1.45-1 2.28t-2.77.82q-.76 0-1.52-.15-.75-.14-1.49-.44v-1.83q.74.42 1.4.63t1.24.22q.85 0 1.33-.41.49-.42.49-1.13 0-.7-.49-1.12-.48-.4-1.33-.4-.5 0-1.06.13-.57.12-1.22.4z" aria-label="5" style="font-size:12.3472px;stroke-width:1.74234" transform="translate(0 -78.33)"/>
    <path d="M15.9 86.8q0 2.23-.97 3.45a3.3 3.3 0 0 1-2.74 1.21 3.3 3.3 0 0 1-2.74-1.21 5.5 5.5 0 0 1-.96-3.45q0-2.25.96-3.46a3.3 3.3 0 0 1 2.74-1.22q1.77 0 2.74 1.22.96 1.2.96 3.46" aria-label="0" style="font-size:12.3472px;stroke-width:1.74234" transform="translate(0 -78.33)"/>
    <path d="M-16.86-87.56h9.34v1.54h-9.34z" style="fill:#fff;stroke-width:.405501" transform="matrix(-1 0 0 -1 0 -78.33)"/>
</svg>
