<svg xmlns="http://www.w3.org/2000/svg" width="64" height="64" viewBox="0 0 64 64">
    <path d="M0 0h64v64H0Z" style="fill:#609043;stroke-width:.999999"/>
    <path d="M5.8 42.93h7.74v-22L5.6 22.59V16.6l7.9-1.64h8.35v27.96h7.74v6.06H5.8Z" aria-label="1" style="font-weight:700;stroke-width:6.58522"/>
    <path d="M60.07 32.01c0 5.64-3.59 6.99-6.02 10.06-2.43 3.05-3.5 7.58-7.97 7.58-4.48 0-5.18-5.03-7.61-8.08-2.44-3.07-6.4-3.92-6.4-9.56q0-8.47 3.65-13.06t10.36-4.6q6.7 0 10.35 4.6t3.64 13.06" aria-label="0" style="font-weight:700;font-size:12.3472px;stroke-width:6.58522"/>
    <path d="M55.93 27.05a4.23 4.23 0 0 1-4.23 4.23 4.23 4.23 0 0 1-4.24-4.23 4.23 4.23 0 0 1 4.24-4.24 4.23 4.23 0 0 1 4.23 4.24M44.68 27.05a4.23 4.23 0 0 1-4.23 4.23 4.23 4.23 0 0 1-4.24-4.23 4.23 4.23 0 0 1 4.24-4.24 4.23 4.23 0 0 1 4.23 4.24" style="fill:#fff;stroke-width:1.26051"/>
</svg>
