<svg xmlns="http://www.w3.org/2000/svg" width="64" height="64" viewBox="0 0 64 64">
    <path d="M0 0h64v64H0Z" style="fill:#b55ddd;stroke-width:.999999"/>
    <path d="M32 4.5a13.75 13.75 0 0 0-13.75 13.4A13.75 13.75 0 0 0 4.5 31.65 13.75 13.75 0 0 0 18.25 45.4v.35A13.75 13.75 0 0 0 32 59.5a13.75 13.75 0 0 0 13.75-13.75l-.01-.35h.01A13.75 13.75 0 0 0 59.5 31.65 13.75 13.75 0 0 0 45.75 17.9h-.01A13.75 13.75 0 0 0 32 4.5" style="fill:#fff;stroke-width:1.41026"/>
    <path d="M29.4 42.54h14.96v6.45H19.64v-6.45l12.42-10.96q1.66-1.5 2.46-2.94t.8-2.99q0-2.39-1.62-3.85-1.6-1.46-4.26-1.46-2.05 0-4.5.9-2.43.86-5.21 2.6v-7.48q2.96-.98 5.86-1.48 2.89-.53 5.67-.53 6.1 0 9.48 2.7 3.4 2.68 3.4 7.49 0 2.78-1.44 5.2-1.44 2.39-6.04 6.42z" aria-label="2" style="font-weight:700;stroke-width:6.58522"/>
</svg>
