<svg xmlns="http://www.w3.org/2000/svg" width="64" height="64" viewBox="0 0 64 64">
    <path d="M0 0h64v64H0Z" style="fill:#828942;stroke-width:.999999"/>
    <path d="M5.8 42.93h7.74v-22L5.6 22.59V16.6l7.9-1.64h8.35v27.96h7.74v6.06H5.8Z" aria-label="1" style="font-weight:700;stroke-width:6.58522"/>
    <path d="M60.07 32.01q0 8.46-3.64 13.06-3.65 4.58-10.35 4.58-6.72 0-10.36-4.58-3.66-4.6-3.65-13.06 0-8.47 3.65-13.06t10.36-4.6q6.7 0 10.35 4.6t3.64 13.06" aria-label="0" style="font-weight:700;font-size:12.3472px;fill:#fff;stroke-width:6.58522"/>
    <path d="M60.07 32.01q0 8.46-3.64 13.06-3.65 4.58-10.35 4.58-6.72 0-10.36-4.58-3.66-4.6-3.65-13.06 0-8.47 3.65-13.06t10.36-4.6q6.7 0 10.35 4.6t3.64 13.06" aria-label="0" style="font-weight:700;font-size:12.3472px;fill:#000;stroke-width:6.58522"/>
    <path d="m61.1 36.18-11.9-2.55 9.28 7.89-10.02-6.92L54 45.44l-6.6-10.22.97 12.13-2.2-11.97-3.73 11.58 2.55-11.9-7.89 9.27 6.92-10.02-10.84 5.55 10.22-6.61-12.13.98 11.97-2.2-11.58-3.74 11.9 2.56-9.27-7.9 10.02 6.92-5.55-10.83 6.61 10.22-.98-12.14 2.2 11.98 3.74-11.59-2.56 11.9 7.9-9.27-6.92 10.02 10.83-5.55-10.22 6.62 12.14-.98-11.98 2.2z" style="fill:#fff;stroke-width:1.62266"/>
</svg>
