<svg xmlns="http://www.w3.org/2000/svg" width="64" height="64" viewBox="0 0 64 64">
    <path d="M0 0h64v64H0Z" style="fill:#429455;stroke-width:.999999"/>
    <path d="M5.8 42.93h7.74v-22L5.6 22.59V16.6l7.9-1.64h8.35v27.96h7.74v6.06H5.8Z" aria-label="1" style="font-weight:700;stroke-width:6.58522"/>
    <path d="M46.69 17.79a15 15 0 0 0-15 15 15 15 0 0 0 15 15 15 15 0 0 0 15-15 15 15 0 0 0-15-15Zm0 .95 3.17 9.76h10.26l-8.3 6.03 3.17 9.76-8.3-6.03-8.3 6.03 3.17-9.76-8.3-6.03h10.26z" style="fill:#fff;stroke:#000;stroke-width:.999999"/>
    <path d="M33.25 28.5h26.87L38.4 44.3l8.3-25.56 8.3 25.55Z" style="fill:none;stroke:#000;stroke-width:.999999"/>
</svg>
