<svg xmlns="http://www.w3.org/2000/svg" width="64" height="64" viewBox="0 0 64 64">
    <path d="M0 0h64v64H0Z" style="fill:#4778b9;stroke-width:.999999"/>
    <path d="M5.8 42.93h7.74v-22L5.6 22.59V16.6l7.9-1.64h8.35v27.96h7.74v6.06H5.8Z" aria-label="1" style="font-weight:700;stroke-width:6.58522"/>
    <path d="M60.07 32.01q0 8.46-3.64 13.06-3.65 4.58-10.35 4.58-6.72 0-10.36-4.58-3.66-4.6-3.65-13.06 0-8.47 3.65-13.06t10.36-4.6q6.7 0 10.35 4.6t3.64 13.06" aria-label="0" style="font-weight:700;font-size:12.3472px;stroke-width:6.58522"/>
    <path d="M37.7 18.55c-5.1 0-8.45 4.32-7.13 9.26 3.12 11.62 15.5 17.64 15.5 17.64s12.38-6.02 15.5-17.64c1.32-4.94-2.02-9.26-7.14-9.26-3.8 0-6.66 4.24-8.36 5.8-1.7-1.56-4.55-5.8-8.36-5.8" style="fill:#fff;stroke-width:.949644"/>
</svg>
