<svg xmlns="http://www.w3.org/2000/svg" width="64" height="64" viewBox="0 0 64 64">
    <path d="M0 0h64v64H0Z" style="fill:#4b8baf;stroke-width:.999999"/>
    <path d="M5.8 42.93h7.74v-22L5.6 22.59V16.6l7.9-1.64h8.35v27.96h7.74v6.06H5.8Z" aria-label="1" style="font-weight:700;stroke-width:6.58522"/>
    <path d="M60.07 32.01q0 8.46-3.64 13.06-3.65 4.58-10.35 4.58-6.72 0-10.36-4.58-3.65-4.6-3.65-13.06t3.65-13.06 10.36-4.6q6.7 0 10.35 4.6t3.64 13.06" aria-label="0" style="font-weight:700;font-size:12.3472px;stroke-width:6.58522"/>
    <path d="M-49.65 43.17h35.3v5.8h-35.3z" style="fill:#fff;stroke-width:1.5326" transform="rotate(-90)"/>
    <path d="M-63.72-34.9h35.3v5.8h-35.3Z" style="fill:#fff;stroke-width:1.5326" transform="scale(-1)"/>
</svg>
