<svg xmlns="http://www.w3.org/2000/svg" width="64" height="64" viewBox="0 0 64 64">
    <path d="M0 0h64v64H0Z" style="fill:#609043;stroke-width:.999999"/>
    <path d="M13.77 42.54h14.97v6.45H4.02v-6.45l12.42-10.96q1.66-1.5 2.46-2.94t.8-2.99q0-2.39-1.62-3.85-1.6-1.46-4.26-1.46-2.06 0-4.5.9-2.43.86-5.21 2.6v-7.48q2.96-.98 5.85-1.48 2.9-.53 5.68-.53 6.1 0 9.48 2.7 3.4 2.68 3.4 7.49 0 2.78-1.44 5.2-1.44 2.39-6.04 6.42z" aria-label="2" style="font-weight:700;stroke-width:6.58522"/>
    <path d="M60 32.01c0 5.64-3.59 6.99-6.02 10.06-2.43 3.05-3.5 7.58-7.97 7.58-4.48 0-5.18-5.03-7.61-8.08C35.97 38.5 32 37.65 32 32q0-8.47 3.65-13.06T46 14.35q6.7 0 10.35 4.6T60 32.01" aria-label="0" style="font-weight:700;font-size:12.3472px;stroke-width:6.58522"/>
    <path d="M55.93 27.05a4.23 4.23 0 0 1-4.23 4.23 4.23 4.23 0 0 1-4.24-4.23 4.23 4.23 0 0 1 4.24-4.24 4.23 4.23 0 0 1 4.23 4.24M44.68 27.05a4.23 4.23 0 0 1-4.23 4.23 4.23 4.23 0 0 1-4.24-4.23 4.23 4.23 0 0 1 4.24-4.24 4.23 4.23 0 0 1 4.23 4.24" style="fill:#fff;stroke-width:1.26051"/>
</svg>
