<svg xmlns="http://www.w3.org/2000/svg" width="64" height="64" viewBox="0 0 64 64">
    <path d="M0 0h64v64H0Z" style="fill:#a07e42;stroke-width:.999999"/>
    <path d="M13.77 42.54h14.97v6.45H4.02v-6.45l12.42-10.96q1.66-1.5 2.46-2.94t.8-2.99q0-2.39-1.62-3.85-1.6-1.46-4.26-1.46-2.06 0-4.5.9-2.43.86-5.21 2.6v-7.48q2.96-.98 5.85-1.48 2.9-.53 5.68-.53 6.1 0 9.48 2.7 3.4 2.68 3.4 7.49 0 2.78-1.44 5.2-1.44 2.39-6.04 6.42z" aria-label="2" style="font-weight:700;stroke-width:6.58522"/>
    <path d="M43.89 26.67v16.35a6 6 0 0 1-6 5.97h16.46a6 6 0 0 1-6-5.97V26.67z" style="fill:#f9f9f9;stroke-width:.999999"/>
    <path d="M46.08 14.35q-6.72 0-10.37 4.6a16 16 0 0 0-2.76 5.68 15.25 7.63 0 0 0 13.4 3.98 15.25 7.63 0 0 0 12.95-3.6q-.9-3.6-2.87-6.05-3.65-4.6-10.35-4.6" style="font-weight:700;font-size:12.3472px;stroke-width:6.58522"/>
</svg>
