<svg xmlns="http://www.w3.org/2000/svg" width="64" height="64" viewBox="0 0 64 64">
    <path d="M0 0h64v64H0Z" style="fill:#b55ddd;stroke-width:.999999"/>
    <path d="M32 4.5a13.75 13.75 0 0 0-13.75 13.4A13.75 13.75 0 0 0 4.5 31.65 13.75 13.75 0 0 0 18.25 45.4v.35A13.75 13.75 0 0 0 32 59.5a13.75 13.75 0 0 0 13.75-13.75l-.01-.35h.01A13.75 13.75 0 0 0 59.5 31.65 13.75 13.75 0 0 0 45.75 17.9h-.01A13.75 13.75 0 0 0 32 4.5" style="fill:#fff;stroke-width:1.41026"/>
    <path d="M37.8 30.64q3.44.9 5.22 3.1 1.8 2.2 1.8 5.59 0 5.05-3.88 7.7-3.87 2.62-11.3 2.62-2.62 0-5.26-.43-2.62-.42-5.2-1.26V41.2q2.46 1.23 4.88 1.87 2.44.62 4.78.62 3.49 0 5.34-1.21 1.86-1.2 1.86-3.46 0-2.33-1.9-3.51-1.9-1.21-5.61-1.21h-3.51v-5.65h3.69q3.3 0 4.92-1.03 1.62-1.04 1.62-3.16 0-1.96-1.58-3.03-1.57-1.08-4.44-1.08-2.12 0-4.28.48t-4.3 1.42V15.8q2.59-.73 5.14-1.1 2.55-.36 5.01-.36 6.63 0 9.92 2.19 3.3 2.16 3.3 6.54 0 2.98-1.57 4.9-1.57 1.89-4.65 2.66" aria-label="3" style="font-weight:700;stroke-width:6.58522"/>
</svg>
