<svg xmlns="http://www.w3.org/2000/svg" width="64" height="64" viewBox="0 0 64 64">
    <path d="M0 0h64v64H0Z" style="fill:#b55ddd;stroke-width:.999999"/>
    <path d="M32 4.5a13.75 13.75 0 0 0-13.75 13.4A13.75 13.75 0 0 0 4.5 31.65 13.75 13.75 0 0 0 18.25 45.4v.35A13.75 13.75 0 0 0 32 59.5a13.75 13.75 0 0 0 13.75-13.75l-.01-.35h.01A13.75 13.75 0 0 0 59.5 31.65 13.75 13.75 0 0 0 45.75 17.9h-.01A13.75 13.75 0 0 0 32 4.5" style="fill:#fff;stroke-width:1.41026"/>
    <path d="m32.97 22.19-9.62 14.24h9.62zm-1.46-7.22h9.75v21.46h4.86v6.36h-4.86v6.2h-8.3v-6.2H17.89v-7.52z" aria-label="4" style="font-weight:700;stroke-width:6.58522"/>
</svg>
