<svg xmlns="http://www.w3.org/2000/svg" width="64" height="64" viewBox="0 0 64 64">
    <path d="M0 0h64v64H0Z" style="fill:#b55ddd;stroke-width:.999999"/>
    <path d="M32 4.5a13.75 13.75 0 0 0-13.75 13.4A13.75 13.75 0 0 0 4.5 31.65 13.75 13.75 0 0 0 18.25 45.4v.35A13.75 13.75 0 0 0 32 59.5a13.75 13.75 0 0 0 13.75-13.75l-.01-.35h.01A13.75 13.75 0 0 0 59.5 31.65 13.75 13.75 0 0 0 45.75 17.9h-.01A13.75 13.75 0 0 0 32 4.5" style="fill:#fff;stroke-width:1.41026"/>
    <path d="M20.54 14.97h21.8v6.45h-14.8v5.26q1-.27 2-.41 1.02-.16 2.12-.16 6.22 0 9.68 3.12 3.47 3.1 3.47 8.66 0 5.51-3.79 8.64-3.76 3.12-10.46 3.12-2.89 0-5.74-.57-2.82-.55-5.63-1.69v-6.9q2.78 1.6 5.27 2.4 2.5.79 4.71.79 3.2 0 5.02-1.55 1.84-1.57 1.84-4.24 0-2.69-1.84-4.24-1.83-1.55-5.02-1.55-1.89 0-4.03.5-2.14.48-4.6 1.5z" aria-label="5" style="font-weight:700;stroke-width:6.58522"/>
</svg>
